# xmcd CD database file
#
# Track frame offsets:
#	150
#	26386
#	48690
#	68531
#	91464
#	113000
#	134342
#	149215
#	172532
#	200186
#	222690
#	244526
#	265600
#	289456
#	316262
#
# Disc length: 4504 seconds
#
# Revision: 0
# Processed by: cddbd v1.4PL0 Copyright (c) Steve Scherf et al.
# Submitted via: CDex 1.51
#
DISCID=e511960f
DTITLE=Carlos Santana - Greatest Hits
DYEAR=2001
DGENRE=Blues
TTITLE0=Love Of My Life
TTITLE1=Contigo (With You)
TTITLE2=Maria Maria
TTITLE3=Europa
TTITLE4=Put Your Lites On
TTITLE5=I Love You Much Too Much
TTITLE6=Black Magic Woman
TTITLE7=Luz Amor Y Vida
TTITLE8=En Aranjues Con Tu Amor
TTITLE9=Smooth
TTITLE10=Moonflower
TTITLE11=Samba Da Ti
TTITLE12=One With You
TTITLE13=Blues Latino
TTITLE14=Chill Out
EXTD=YEAR: 2001
EXTT0=
EXTT1=
EXTT2=
EXTT3=
EXTT4=
EXTT5=
EXTT6=
EXTT7=
EXTT8=
EXTT9=
EXTT10=
EXTT11=
EXTT12=
EXTT13=
EXTT14=
PLAYORDER=
